HIERARCHY
ROOT Hips
{
	OFFSET 62.890800 8.863803 43.568401
	CHANNELS 6 Xposition Yposition Zposition Zrotation Xrotation Yrotation
	JOINT Chest
	{
		OFFSET -0.160400 1.630001 7.806301
		CHANNELS 6 Xposition Yposition Zposition Zrotation Xrotation Yrotation
		JOINT Chest2
		{
			OFFSET 0.000000 0.000000 3.197998
			CHANNELS 6 Xposition Yposition Zposition Zrotation Xrotation Yrotation
			JOINT Neck
			{
				OFFSET 0.000000 0.000001 7.440701
				CHANNELS 6 Xposition Yposition Zposition Zrotation Xrotation Yrotation
				JOINT Head
				{
					OFFSET 0.000000 0.000000 2.173901
					CHANNELS 6 Xposition Yposition Zposition Zrotation Xrotation Yrotation
					End Site
					{
						OFFSET 0.000000 0.000001 10.420303
					}
				}
			}
			JOINT LeftCollar
			{
				OFFSET 2.426399 -1.880099 4.759399
				CHANNELS 6 Xposition Yposition Zposition Zrotation Xrotation Yrotation
				JOINT LeftShoulder
				{
					OFFSET 4.420197 0.000000 0.000000
					CHANNELS 6 Xposition Yposition Zposition Zrotation Xrotation Yrotation
					JOINT LeftElbow
					{
						OFFSET 0.000000 -0.000001 -10.347099
						CHANNELS 6 Xposition Yposition Zposition Zrotation Xrotation Yrotation
						JOINT LeftWrist
						{
							OFFSET 0.000000 -0.000001 -12.496300
							CHANNELS 6 Xposition Yposition Zposition Zrotation Xrotation Yrotation
							End Site
							{
								OFFSET 0.000000 0.000000 -2.173901
							}
						}
					}
				}
			}
			JOINT RightCollar
			{
				OFFSET -2.781502 -1.903799 5.072601
				CHANNELS 6 Xposition Yposition Zposition Zrotation Xrotation Yrotation
				JOINT RightShoulder
				{
					OFFSET -4.012100 0.000000 0.000000
					CHANNELS 6 Xposition Yposition Zposition Zrotation Xrotation Yrotation
					JOINT RightElbow
					{
						OFFSET 0.000000 -0.000001 -10.346600
						CHANNELS 6 Xposition Yposition Zposition Zrotation Xrotation Yrotation
						JOINT RightWrist
						{
							OFFSET 0.000000 -0.000001 -12.562599
							CHANNELS 6 Xposition Yposition Zposition Zrotation Xrotation Yrotation
							End Site
							{
								OFFSET 0.000000 0.000000 -2.173901
							}
						}
					}
				}
			}
		}
	}
	JOINT LeftHip
	{
		OFFSET 2.047997 -0.047200 -2.693199
		CHANNELS 6 Xposition Yposition Zposition Zrotation Xrotation Yrotation
		JOINT LeftKnee
		{
			OFFSET 0.000000 -0.000001 -18.824400
			CHANNELS 6 Xposition Yposition Zposition Zrotation Xrotation Yrotation
			JOINT LeftAnkle
			{
				OFFSET 0.000000 -0.000002 -19.078199
				CHANNELS 6 Xposition Yposition Zposition Zrotation Xrotation Yrotation
				End Site
				{
					OFFSET 0.000000 -9.342100 0.000001
				}
			}
		}
	}
	JOINT RightHip
	{
		OFFSET -2.129898 -0.022300 -2.538300
		CHANNELS 6 Xposition Yposition Zposition Zrotation Xrotation Yrotation
		JOINT RightKnee
		{
			OFFSET 0.000000 -0.000001 -18.644600
			CHANNELS 6 Xposition Yposition Zposition Zrotation Xrotation Yrotation
			JOINT RightAnkle
			{
				OFFSET 0.000000 -0.000002 -18.801399
				CHANNELS 6 Xposition Yposition Zposition Zrotation Xrotation Yrotation
				End Site
				{
					OFFSET 0.000000 -8.914600 0.000001
				}
			}
		}
	}
}
MOTION
Frames: 9
Frame Time: 0.041667
83.327797 -37.456020 17.953844 -365.984676 13.762274 2.650995 -0.160414 1.629995 7.806302 6.277386 1.445917 -4.425671 0.000006 0.000001 3.198006 -14.983297 -8.624222 -2.046803 -0.000002 0.000000 7.440709 -53.700098 -11.210815 11.541843 -0.000001 0.000001 2.173907 -5.283636 -0.734565 -8.958664 2.426409 -1.880099 4.759405 10.368655 -5.138608 -0.925048 4.420204 -0.000001 -0.000010 -34.920647 -17.394077 -123.890657 -0.000008 0.000007 -10.347097 422.348791 -14.783637 5.257367 -0.000005 -0.000001 -12.496284 72.646090 -8.769220 -23.755837 -2.781497 -1.903802 5.072612 5.301047 10.198728 -8.715571 -4.012098 0.000003 0.000003 4.258982 12.499045 86.238863 0.000002 0.000001 -10.346592 -28.466803 -14.214842 -16.860949 0.000005 -0.000002 -12.562592 892.797632 -172.445297 192.513936 2.047976 -0.047204 -2.693201 144.493048 -10.165361 96.229265 -0.000001 -0.000003 -18.824394 -10.350784 189.720553 -30.404170 -0.000000 -0.000006 -19.078201 61.185518 -29.636136 60.865885 -2.129905 -0.022305 -2.538298 -503.084960 -3.503787 -118.892065 0.000001 -0.000000 -18.644594 375.133606 174.428784 88.328211 0.000000 -0.000004 -18.801405 -23.987865 0.379616 -64.878164
83.184097 -37.392620 18.036142 -365.757067 14.180941 2.381958 -0.160401 1.630002 7.806306 6.064669 1.493026 -4.261675 0.000011 0.000001 3.198002 -14.861785 -8.680674 -2.031967 0.000010 0.000009 7.440701 -53.817547 -11.395195 11.367051 -0.000013 0.000005 2.173908 -5.140017 -0.725853 -8.992033 2.426415 -1.880093 4.759395 10.334209 -5.528849 -1.060462 4.420204 0.000009 -0.000006 -34.503267 -17.186271 -123.533957 0.000000 0.000007 -10.347095 422.628282 -14.575060 5.463227 -0.000002 -0.000002 -12.496297 72.396139 -8.825861 -23.812353 -2.781499 -1.903797 5.072605 5.248185 10.278839 -8.645106 -4.012097 0.000002 0.000001 4.361862 12.330080 86.236650 -0.000002 0.000002 -10.346591 -24.181243 -15.650310 -15.596139 -0.000005 -0.000006 -12.562601 888.386531 -172.496496 192.384272 2.047993 -0.047193 -2.693208 143.956277 -10.275704 96.284589 -0.000001 -0.000005 -18.824394 -10.275242 189.257493 -30.850062 -0.000002 -0.000005 -19.078197 61.529404 -29.900967 60.760864 -2.129897 -0.022294 -2.538301 -503.013380 -3.533285 -119.403140 -0.000010 0.000004 -18.644609 374.906133 174.199248 87.747468 -0.000003 -0.000005 -18.801403 -24.327484 0.705389 -64.251378
83.004807 -37.323322 18.160732 -365.535578 14.625071 2.015900 -0.160402 1.630002 7.806308 5.856353 1.601936 -3.986036 0.000008 -0.000001 3.198006 -14.698355 -8.738743 -2.013034 -0.000017 0.000004 7.440703 -53.859969 -11.547739 11.102086 -0.000001 0.000001 2.173908 -5.054430 -0.737435 -8.966596 2.426387 -1.880101 4.759395 10.459687 -6.053712 -1.218776 4.420197 -0.000005 -0.000005 -34.239089 -16.938838 -123.043877 0.000002 0.000004 -10.347099 422.911817 -14.358914 5.690585 -0.000002 -0.000007 -12.496292 72.055880 -8.848691 -23.837061 -2.781519 -1.903799 5.072599 5.235283 10.348934 -8.564631 -4.012091 0.000002 -0.000003 4.502310 12.208713 86.302261 -0.000001 0.000002 -10.346596 -24.303784 -15.615308 -15.580124 -0.000004 0.000000 -12.562601 888.467565 -172.421801 192.282652 2.047984 -0.047201 -2.693198 143.344060 -10.515029 96.249646 0.000001 -0.000008 -18.824398 -10.047397 188.732839 -31.450678 0.000001 -0.000004 -19.078199 62.010727 -30.152055 60.849397 -2.129899 -0.022299 -2.538301 -502.860875 -3.571710 -119.918710 -0.000003 0.000000 -18.644600 374.729586 173.959918 87.177707 0.000001 -0.000007 -18.801397 -24.947053 0.966331 -63.681945
82.788589 -37.252621 18.332541 -365.230132 15.060994 1.558100 -0.160395 1.630004 7.806304 5.570304 1.777532 -3.665740 -0.000008 0.000002 3.198000 -14.409150 -8.818666 -1.969138 -0.000007 0.000009 7.440698 -53.906800 -11.702863 10.851093 0.000002 0.000001 2.173909 -5.054747 -0.738669 -8.929386 2.426393 -1.880098 4.759394 11.516747 -3.941545 -1.101863 4.420202 -0.000001 0.000000 -35.567992 -18.865481 -124.245471 0.000010 0.000014 -10.347092 422.988206 -14.124065 5.896589 -0.000007 -0.000001 -12.496297 71.711802 -8.917346 -23.842377 -2.781505 -1.903795 5.072596 5.150399 10.402998 -8.416045 -4.012099 -0.000002 0.000002 4.659784 12.243936 86.308060 -0.000008 0.000002 -10.346586 -24.419904 -15.559121 -15.579165 0.000006 -0.000004 -12.562609 888.460407 -172.321465 192.153111 2.048003 -0.047198 -2.693209 142.578737 -10.877088 96.091732 -0.000001 -0.000010 -18.824398 -9.713867 188.152860 -32.223613 0.000001 -0.000011 -19.078197 62.576684 -30.347838 61.113411 -2.129892 -0.022300 -2.538303 -502.735582 -3.593257 -120.364011 -0.000002 0.000009 -18.644598 374.617844 173.787156 86.667915 -0.000001 -0.000006 -18.801399 -25.994025 1.149186 -63.243665
82.536301 -37.178822 18.550037 -364.860782 15.490008 1.068541 -0.160394 1.629998 7.806304 5.221639 2.014372 -3.324143 -0.000002 0.000008 3.198002 -14.096611 -8.853740 -1.932192 -0.000002 0.000007 7.440700 -53.940842 -11.898325 10.591954 -0.000003 -0.000002 2.173901 -4.960207 -0.771580 -8.896041 2.426392 -1.880096 4.759396 12.094341 -4.299187 -1.148550 4.420194 0.000004 -0.000004 -35.935934 -18.770186 -123.770910 -0.000002 0.000003 -10.347090 423.236169 -13.870626 6.098812 0.000005 -0.000005 -12.496291 71.220261 -8.993330 -23.830691 -2.781502 -1.903797 5.072602 5.179872 10.470975 -8.232620 -4.012107 0.000005 -0.000005 4.763113 12.314475 86.270501 0.000000 0.000003 -10.346598 -24.472438 -15.509461 -15.574401 0.000007 -0.000003 -12.562601 888.358774 -172.177253 191.988599 2.047997 -0.047199 -2.693208 141.709200 -11.239947 95.879935 0.000002 -0.000003 -18.824396 -9.328804 187.615939 -33.157365 -0.000000 -0.000003 -19.078190 63.432541 -30.556292 61.597180 -2.129896 -0.022295 -2.538299 -502.629195 -3.539088 -120.682817 -0.000003 0.000000 -18.644604 374.575661 173.631059 86.173867 -0.000000 -0.000003 -18.801405 -27.557448 1.171502 -63.091571
82.246597 -37.106319 18.811935 -364.462774 16.162862 0.334089 -0.160389 1.629999 7.806310 4.705028 2.079655 -2.723780 0.000002 -0.000004 3.198004 -13.493612 -8.868579 -1.832563 -0.000020 0.000000 7.440700 -54.033886 -12.076171 10.305758 -0.000003 -0.000003 2.173908 -4.999214 -0.814536 -8.900149 2.426387 -1.880110 4.759393 12.500001 -4.657666 -1.158121 4.420212 0.000004 0.000007 -36.265569 -18.650475 -123.288084 -0.000017 0.000013 -10.347115 423.328076 -13.657371 6.250233 -0.000009 -0.000001 -12.496298 70.947586 -9.047212 -23.812746 -2.781513 -1.903802 5.072595 5.175015 10.532369 -8.111731 -4.012101 0.000004 -0.000000 4.814650 12.410981 86.244068 -0.000000 -0.000002 -10.346605 -24.530749 -15.445093 -15.579115 0.000007 -0.000006 -12.562602 888.247633 -172.125453 191.966838 2.047999 -0.047201 -2.693192 140.737086 -11.508841 95.566593 -0.000001 0.000000 -18.824390 -8.790329 187.014131 -34.243024 0.000011 0.000002 -19.078199 64.377770 -30.561019 62.330845 -2.129881 -0.022302 -2.538297 -503.903544 -5.936826 -121.310922 -0.000002 -0.000006 -18.644594 371.668733 173.158177 85.689627 -0.000004 0.000001 -18.801395 -29.550045 1.154062 -63.148651
81.929092 -37.039021 19.113440 -364.053673 16.548623 -0.424151 -0.160406 1.630007 7.806301 4.281651 2.435638 -2.138257 0.000012 0.000003 3.198005 -13.077685 -8.941003 -1.781473 -0.000014 0.000003 7.440703 -53.966612 -12.246050 10.148241 -0.000010 0.000017 2.173907 -5.022169 -0.894389 -8.904635 2.426395 -1.880096 4.759399 13.020525 -4.844691 -1.014538 4.420194 -0.000004 0.000002 -36.553772 -18.404508 -122.869093 0.000004 0.000008 -10.347090 423.456921 -13.476866 6.312025 0.000002 0.000003 -12.496305 70.411129 -8.662477 -23.014177 -2.781503 -1.903799 5.072604 5.381145 10.722477 -8.047414 -4.012100 0.000000 -0.000000 4.781675 12.460460 86.310587 -0.000005 0.000002 -10.346594 -24.577524 -15.351002 -15.560885 0.000000 -0.000003 -12.562592 888.223481 -172.097777 191.877827 2.047982 -0.047199 -2.693199 139.713377 -11.952410 94.967510 -0.000001 -0.000005 -18.824396 -8.204149 186.537165 -35.526474 0.000009 0.000006 -19.078196 64.233585 -29.721469 59.081007 -2.129906 -0.022295 -2.538304 -504.045667 -6.173592 -121.575701 -0.000001 -0.000010 -18.644598 371.360008 172.595902 85.214738 -0.000005 -0.000006 -18.801397 -31.795057 1.047878 -63.230244
81.585098 -36.980824 19.451838 -363.693530 16.860882 -1.224127 -0.160403 1.629998 7.806311 3.896018 2.883803 -1.521178 0.000002 -0.000001 3.198004 -12.662382 -9.046942 -1.730992 0.000002 0.000004 7.440704 -53.953167 -12.422909 10.063141 0.000002 0.000009 2.173906 -4.982996 -0.950121 -8.940921 2.426397 -1.880095 4.759399 14.492114 -5.432341 -0.428409 4.420191 -0.000007 -0.000001 -37.784511 -17.514999 -122.435744 -0.000010 0.000005 -10.347101 424.230317 -13.156760 6.532692 -0.000001 -0.000008 -12.496293 69.617229 -8.532421 -22.879739 -2.781504 -1.903798 5.072611 5.646972 10.938317 -8.088377 -4.012103 -0.000001 -0.000006 4.715140 12.495550 86.488076 -0.000003 0.000002 -10.346598 -24.674750 -15.219738 -15.480468 -0.000000 0.000000 -12.562612 888.321235 -172.063189 191.810522 2.047984 -0.047201 -2.693191 138.672293 -12.457261 94.216224 0.000010 -0.000007 -18.824402 -7.605265 186.079065 -36.938244 0.000005 0.000002 -19.078201 64.195432 -28.944631 56.301731 -2.129918 -0.022298 -2.538296 -504.189046 -6.345323 -121.732590 -0.000002 0.000004 -18.644604 371.040683 172.190380 84.752081 -0.000004 -0.000003 -18.801395 -34.636968 0.825957 -63.500856
81.219894 -36.933018 19.822437 -363.402182 17.132901 -2.077248 -0.160397 1.630000 7.806304 3.563317 3.346858 -0.844607 -0.000003 -0.000001 3.198002 -12.275365 -9.168892 -1.686358 0.000002 0.000008 7.440707 -53.944708 -12.564267 10.046168 -0.000004 0.000003 2.173908 -4.856452 -0.992495 -8.978006 2.426393 -1.880101 4.759402 14.309100 -5.486676 -0.300117 4.420198 0.000001 -0.000001 -37.235784 -16.947100 -122.047626 -0.000001 0.000013 -10.347080 425.568187 -12.646687 6.775277 0.000000 -0.000006 -12.496287 68.979808 -8.689085 -23.636293 -2.781503 -1.903798 5.072610 6.448496 11.283494 -8.147107 -4.012095 0.000000 0.000001 4.197296 12.213680 86.592817 -0.000000 0.000000 -10.346595 -24.731415 -15.066156 -15.321262 0.000000 -0.000001 -12.562594 888.670066 -172.090154 191.708438 2.047995 -0.047198 -2.693207 137.583601 -13.330575 93.259710 0.000003 -0.000007 -18.824415 -6.817714 185.489920 -38.503887 0.000001 -0.000004 -19.078197 64.012540 -28.012015 53.114724 -2.129893 -0.022298 -2.538296 -504.431108 -6.825944 -121.784117 -0.000002 0.000010 -18.644596 370.343949 171.332905 84.252904 -0.000005 -0.000006 -18.801397 -37.466685 0.596120 -63.523648
